<?xml version="1.0" encoding="utf-8"?>
<svg fill="#000000" version="1.1" id="Capa_1" width="800px" height="800px" viewBox="0 0 121.025 121.025" xmlns="http://www.w3.org/2000/svg">
  <g>
    <path d="M 1.35 56.713 C 9.25 46.813 32.75 20.413 60.55 20.513 C 69.007 20.513 77.066 22.956 84.409 26.634 L 72.119 39.36 C 68.692 37.481 64.751 36.413 60.55 36.413 C 47.25 36.413 36.55 47.113 36.55 60.413 C 36.55 64.915 37.776 69.119 39.913 72.71 L 25.543 87.592 C 14.191 79.439 5.558 69.485 1.35 64.212 C -0.45 62.012 -0.45 58.913 1.35 56.713 Z M 119.75 56.813 C 121.449 58.912 121.449 62.012 119.75 64.212 C 111.85 74.113 88.35 100.512 60.55 100.512 C 52.532 100.512 44.872 98.316 37.84 94.953 L 50.243 82.11 C 53.362 83.587 56.856 84.413 60.55 84.413 C 73.85 84.413 84.55 73.713 84.55 60.413 C 84.55 56.419 83.585 52.66 81.875 49.354 L 96.551 34.157 C 107.412 42.167 115.666 51.695 119.75 56.813 Z"/>
    <circle cx="60.55" cy="60.413" r="12"/>
  </g>
  <path d="M 69.566 94.559 L 69.566 205.559 L 53.871 205.559 L 53.871 94.559 Z M 54.871 204.559 L 68.566 204.559 L 68.566 95.559 L 54.871 95.559 Z" style="fill: rgba(0, 0, 0, 0);" transform="matrix(0.8191520571708679, 0.573576033115387, -0.573576033115387, 0.8191520571708679, -2.3507399909308546, -86.91747413452674)"/>
  <rect x="29.6" y="95.756" width="8" height="110.808" style="fill-rule: nonzero; paint-order: stroke; stroke: rgba(0, 0, 0, 0); transform-origin: 33.6px 151.16px;" transform="matrix(0.71934, 0.694658, -0.694658, 0.71934, 26.041148, -88.914923)"/>
</svg>